<svg id="レイヤー_1" data-name="レイヤー 1" xmlns="http://www.w3.org/2000/svg" xmlns:xlink="http://www.w3.org/1999/xlink" viewBox="0 0 737.69 737.69"><defs><style>.cls-1,.cls-3{fill:none;}.cls-2{clip-path:url(#clip-path);}.cls-3{stroke:#3e3e79;stroke-miterlimit:10;stroke-width:2px;}</style><clipPath id="clip-path" transform="translate(-151.65 -159.15)"><rect class="cls-1" x="381.5" y="380.5" width="291" height="291"/></clipPath></defs><g class="cls-2"><path class="cls-3" d="M448.64,896.14,152.36,599.86m8-8L456.64,888.14M168.36,583.86,464.64,880.14m8-8L176.36,575.86M480.64,864.14,184.36,567.86M488.64,856.14,192.36,559.86m8-8L496.64,848.14M208.36,543.86,504.64,840.14M216.36,535.86,512.64,832.14M224.36,527.86,520.64,824.14M232.36,519.86,528.64,816.14m8-8L240.36,511.86M544.64,800.14,248.36,503.86m8-8L552.64,792.14M264.36,487.86,560.64,784.14M272.36,479.86,568.64,776.14M280.36,471.86,576.64,768.14M288.36,463.86,584.64,760.14M296.36,455.86,592.64,752.14m8-8L304.36,447.86m8-8L608.64,736.14M320.36,431.86,616.64,728.14M328.36,423.86,624.64,720.14M336.36,415.86,632.64,712.14M344.36,407.86,640.64,704.14m8-8L352.36,399.86m8-8L656.64,688.14M368.36,383.86,664.64,680.14M376.36,375.86,672.64,672.14M384.36,367.86,680.64,664.14M392.36,359.86,688.64,656.14M400.36,351.86,696.64,648.14M408.36,343.86,704.64,640.14m8-8L416.36,335.86m8-8L720.64,624.14M432.36,319.86,728.64,616.14M440.36,311.86,736.64,608.14M448.36,303.86,744.64,600.14M456.36,295.86,752.64,592.14M464.36,287.86,760.64,584.14M472.36,279.86,768.64,576.14m8-8L480.36,271.86m8-8L784.64,560.14M496.36,255.86,792.64,552.14M504.36,247.86,800.64,544.14M512.36,239.86,808.64,536.14M520.36,231.86,816.64,528.14M528.36,223.86,824.64,520.14M536.36,215.86,832.64,512.14m8-8L544.36,207.86m8-8L848.64,496.14M560.36,191.86,856.64,488.14M568.36,183.86,864.64,480.14M576.36,175.86,872.64,472.14M584.36,167.86,880.64,464.14M592.36,159.86,888.64,456.14" transform="translate(-151.65 -159.15)"/></g></svg>